<?xml version="1.0" encoding="utf-8"?>
<!-- Generator: Adobe Illustrator 16.2.1, SVG Export Plug-In . SVG Version: 6.00 Build 0)  -->
<!DOCTYPE svg PUBLIC "-//W3C//DTD SVG 1.1//EN" "http://www.w3.org/Graphics/SVG/1.1/DTD/svg11.dtd">
<svg version="1.1" id="Layer_4" xmlns="http://www.w3.org/2000/svg" xmlns:xlink="http://www.w3.org/1999/xlink" x="0px" y="0px"
	 width="751.873px" height="389.86px" viewBox="0 0 751.873 389.86" enable-background="new 0 0 751.873 389.86"
	 xml:space="preserve">
<g>
	<path fill="#F15A29" d="M160.399,275.13c-0.615,0-1.114-0.499-1.114-1.114v-6.683c0-0.615,0.499-1.114,1.114-1.114h477.949
		l5.634-9.481c0.315-0.528,0.997-0.701,1.527-0.389c0.528,0.314,0.702,0.998,0.389,1.527l-5.958,10.026
		c-0.201,0.338-0.565,0.545-0.958,0.545H161.513v5.568C161.513,274.631,161.015,275.13,160.399,275.13z"/>
</g>
<g>
	<g>
		<path fill="#F15A29" d="M591.474,308.546H273.764c-32.704,0-65.412-5.64-97.216-16.763c-0.308-0.106-6.447-2.32-9.144-3.359
			c-0.574-0.221-0.86-0.865-0.639-1.439s0.866-0.859,1.44-0.639c2.604,1.003,8.773,3.229,9.075,3.333
			c31.57,11.041,64.031,16.639,96.484,16.639h317.709c41.169,0,55.746-12.987,81.411-54.701c0.322-0.523,1.007-0.688,1.532-0.364
			c0.523,0.322,0.688,1.008,0.364,1.532C650.928,291.555,635.839,308.546,591.474,308.546z"/>
	</g>
	<g>
		<path fill="#F15A29" d="M141.885,277.126c-0.166,0-0.334-0.037-0.493-0.116c-1.29-0.638-2.552-1.273-3.788-1.906
			c-19.489-9.976-32.091-19.047-36.604-22.484c-0.489-0.372-0.584-1.071-0.211-1.561c0.372-0.49,1.071-0.585,1.561-0.211
			c4.466,3.4,16.94,12.379,36.27,22.273c1.227,0.629,2.481,1.259,3.761,1.893c0.551,0.272,0.777,0.94,0.504,1.492
			C142.69,276.899,142.295,277.126,141.885,277.126z"/>
	</g>
	<g>
		<path fill="#F15A29" d="M100.25,248.397c-0.615,0-1.114-0.499-1.114-1.114v-30.075c0-0.296,0.117-0.579,0.326-0.788
			c0.209-0.208,0.492-0.326,0.788-0.326l0,0l33.417,0.001c0.615,0,1.114,0.499,1.114,1.114s-0.499,1.114-1.114,1.114l0,0
			l-32.303-0.001v28.961C101.363,247.898,100.865,248.397,100.25,248.397z"/>
	</g>
</g>
<g>
	<path fill="#F15A29" d="M120.299,230.018c-0.615,0-1.114-0.499-1.114-1.114v-11.695c0-0.615,0.499-1.114,1.114-1.114
		s1.114,0.499,1.114,1.114v11.695C121.413,229.519,120.915,230.018,120.299,230.018z"/>
</g>
<g>
	<path fill="#F15A29" d="M147.033,241.713c-0.615,0-1.114-0.499-1.114-1.114v-23.392c0-0.615,0.499-1.114,1.114-1.114
		s1.114,0.499,1.114,1.114v23.392C148.147,241.214,147.648,241.713,147.033,241.713z"/>
</g>
<g>
	<path fill="#F15A29" d="M173.766,241.713c-0.615,0-1.114-0.499-1.114-1.114v-23.392c0-0.615,0.499-1.114,1.114-1.114
		s1.114,0.499,1.114,1.114v23.392C174.88,241.214,174.381,241.713,173.766,241.713z"/>
</g>
<g>
	<path fill="#F15A29" d="M220.549,241.713c-0.615,0-1.114-0.499-1.114-1.114v-9.337l-11.139-5.569v4.881
		c0,0.615-0.499,1.114-1.114,1.114s-1.114-0.499-1.114-1.114v-6.683c0-0.386,0.2-0.744,0.528-0.947s0.738-0.222,1.083-0.049
		l13.367,6.683c0.377,0.188,0.616,0.574,0.616,0.996v10.025C221.663,241.214,221.165,241.713,220.549,241.713z"/>
</g>
<g>
	<path fill="#F15A29" d="M217.208,238.372h-6.684c-0.615,0-1.114-0.499-1.114-1.114s0.499-1.114,1.114-1.114h6.684
		c0.615,0,1.114,0.499,1.114,1.114S217.823,238.372,217.208,238.372z"/>
</g>
<g>
	<path fill="#F15A29" d="M213.866,245.055c-0.615,0-1.114-0.499-1.114-1.114v-6.684c0-0.615,0.499-1.114,1.114-1.114
		s1.114,0.499,1.114,1.114v6.684C214.98,244.556,214.481,245.055,213.866,245.055z"/>
</g>
<g>
	<path fill="#F15A29" d="M691.724,211.639h-6.684c-0.615,0-1.114-0.499-1.114-1.114s0.499-1.114,1.114-1.114h6.684
		c0.615,0,1.114,0.499,1.114,1.114S692.339,211.639,691.724,211.639z"/>
</g>
<g>
	<path fill="#F15A29" d="M688.382,218.323c-0.615,0-1.114-0.499-1.114-1.114v-6.684c0-0.615,0.499-1.114,1.114-1.114
		s1.114,0.499,1.114,1.114v6.684C689.496,217.824,688.997,218.323,688.382,218.323z"/>
</g>
<g>
	<path fill="#F15A29" d="M676.834,248.397c-0.196,0-0.396-0.053-0.576-0.162c-0.526-0.318-0.694-1.003-0.375-1.529
		c3.058-5.046,6.3-10.493,9.731-16.26c2.303-3.869,4.707-7.908,7.232-12.123l-117.631-0.001
		c-3.23,3.074-29.127,26.733-60.601,26.733H133.667c-0.615,0-1.114-0.499-1.114-1.114V233.36h-32.304
		c-0.615,0-1.114-0.499-1.114-1.114s0.499-1.114,1.114-1.114h33.417c0.615,0,1.114,0.499,1.114,1.114v10.581h379.835
		c32.554,0,59.099-26.143,59.363-26.407c0.209-0.208,0.492-0.326,0.787-0.326l120.048,0.001c0.401,0,0.771,0.216,0.97,0.565
		c0.197,0.35,0.191,0.778-0.015,1.122c-2.896,4.825-5.633,9.424-8.239,13.804c-3.435,5.771-6.679,11.221-9.742,16.274
		C677.578,248.206,677.211,248.397,676.834,248.397z"/>
</g>
<g>
	<path fill="#F15A29" d="M120.299,218.323c-0.615,0-1.114-0.499-1.114-1.114v-33.417c0-0.615,0.499-1.114,1.114-1.114
		s1.114,0.499,1.114,1.114v33.417C121.413,217.824,120.915,218.323,120.299,218.323z"/>
</g>
<g>
	<path fill="#F15A29" d="M126.983,218.323c-0.615,0-1.114-0.499-1.114-1.114v-33.417c0-0.615,0.499-1.114,1.114-1.114
		s1.114,0.499,1.114,1.114v33.417C128.097,217.824,127.598,218.323,126.983,218.323z"/>
</g>
<g>
	<g>
		<path fill="#F15A29" d="M133.667,214.98c-0.615,0-1.114-0.499-1.114-1.114v-3.341c0-0.615,0.499-1.114,1.114-1.114
			s1.114,0.499,1.114,1.114v3.341C134.78,214.481,134.282,214.98,133.667,214.98z"/>
	</g>
	<g>
		<path fill="#F15A29" d="M140.35,214.98c-0.615,0-1.114-0.499-1.114-1.114v-3.341c0-0.615,0.499-1.114,1.114-1.114
			s1.114,0.499,1.114,1.114v3.341C141.463,214.481,140.965,214.98,140.35,214.98z"/>
	</g>
	<g>
		<path fill="#F15A29" d="M147.033,214.98c-0.615,0-1.114-0.499-1.114-1.114v-3.341c0-0.615,0.499-1.114,1.114-1.114
			s1.114,0.499,1.114,1.114v3.341C148.147,214.481,147.648,214.98,147.033,214.98z"/>
	</g>
	<g>
		<path fill="#F15A29" d="M153.716,214.98c-0.615,0-1.114-0.499-1.114-1.114v-3.341c0-0.615,0.499-1.114,1.114-1.114
			s1.114,0.499,1.114,1.114v3.341C154.83,214.481,154.332,214.98,153.716,214.98z"/>
	</g>
	<g>
		<path fill="#F15A29" d="M160.399,214.98c-0.615,0-1.114-0.499-1.114-1.114v-3.341c0-0.615,0.499-1.114,1.114-1.114
			s1.114,0.499,1.114,1.114v3.341C161.513,214.481,161.015,214.98,160.399,214.98z"/>
	</g>
	<g>
		<path fill="#F15A29" d="M167.083,214.98c-0.615,0-1.114-0.499-1.114-1.114v-3.341c0-0.615,0.499-1.114,1.114-1.114
			s1.114,0.499,1.114,1.114v3.341C168.196,214.481,167.698,214.98,167.083,214.98z"/>
	</g>
	<g>
		<path fill="#F15A29" d="M173.766,214.98c-0.615,0-1.114-0.499-1.114-1.114v-3.341c0-0.615,0.499-1.114,1.114-1.114
			s1.114,0.499,1.114,1.114v3.341C174.88,214.481,174.381,214.98,173.766,214.98z"/>
	</g>
	<g>
		<path fill="#F15A29" d="M180.449,214.98c-0.615,0-1.114-0.499-1.114-1.114v-3.341c0-0.615,0.499-1.114,1.114-1.114
			s1.114,0.499,1.114,1.114v3.341C181.563,214.481,181.064,214.98,180.449,214.98z"/>
	</g>
	<g>
		<path fill="#F15A29" d="M187.133,214.98c-0.615,0-1.114-0.499-1.114-1.114v-3.341c0-0.615,0.499-1.114,1.114-1.114
			s1.114,0.499,1.114,1.114v3.341C188.247,214.481,187.748,214.98,187.133,214.98z"/>
	</g>
	<g>
		<path fill="#F15A29" d="M193.816,214.98c-0.615,0-1.114-0.499-1.114-1.114v-3.341c0-0.615,0.499-1.114,1.114-1.114
			s1.114,0.499,1.114,1.114v3.341C194.93,214.481,194.431,214.98,193.816,214.98z"/>
	</g>
	<g>
		<path fill="#F15A29" d="M200.5,214.98c-0.615,0-1.114-0.499-1.114-1.114v-3.341c0-0.615,0.499-1.114,1.114-1.114
			s1.114,0.499,1.114,1.114v3.341C201.613,214.481,201.115,214.98,200.5,214.98z"/>
	</g>
</g>
<g>
	<g>
		<path fill="#F15A29" d="M207.183,214.98c-0.615,0-1.114-0.499-1.114-1.114v-3.341c0-0.615,0.499-1.114,1.114-1.114
			s1.114,0.499,1.114,1.114v3.341C208.296,214.481,207.798,214.98,207.183,214.98z"/>
	</g>
</g>
<g>
	<path fill="#F15A29" d="M126.983,198.272h-6.684c-0.615,0-1.114-0.499-1.114-1.114s0.499-1.114,1.114-1.114h6.684
		c0.615,0,1.114,0.499,1.114,1.114S127.598,198.272,126.983,198.272z"/>
</g>
<g>
	<path fill="#F15A29" d="M126.983,191.588h-6.684c-0.615,0-1.114-0.499-1.114-1.114s0.499-1.114,1.114-1.114h6.684
		c0.615,0,1.114,0.499,1.114,1.114S127.598,191.588,126.983,191.588z"/>
</g>
<g>
	<path fill="#F15A29" d="M126.983,211.639h-6.684c-0.615,0-1.114-0.499-1.114-1.114s0.499-1.114,1.114-1.114h6.684
		c0.615,0,1.114,0.499,1.114,1.114S127.598,211.639,126.983,211.639z"/>
</g>
<g>
	<path fill="#F15A29" d="M126.983,204.956h-6.684c-0.615,0-1.114-0.499-1.114-1.114s0.499-1.114,1.114-1.114h6.684
		c0.615,0,1.114,0.499,1.114,1.114S127.598,204.956,126.983,204.956z"/>
</g>
<g>
	<path fill="#F15A29" d="M207.183,211.639h-86.883c-0.615,0-1.114-0.499-1.114-1.114s0.499-1.114,1.114-1.114h86.883
		c0.615,0,1.114,0.499,1.114,1.114S207.798,211.639,207.183,211.639z"/>
</g>
<g>
	<g>
		<path fill="#F15A29" d="M678.357,174.88h-6.684c-0.615,0-1.114-0.499-1.114-1.114s0.499-1.114,1.114-1.114h6.684
			c0.615,0,1.114,0.499,1.114,1.114S678.973,174.88,678.357,174.88z"/>
	</g>
	<g>
		<path fill="#F15A29" d="M678.357,181.563h-6.684c-0.615,0-1.114-0.499-1.114-1.114s0.499-1.114,1.114-1.114h6.684
			c0.615,0,1.114,0.499,1.114,1.114S678.973,181.563,678.357,181.563z"/>
	</g>
	<g>
		<path fill="#F15A29" d="M678.357,188.247h-6.684c-0.615,0-1.114-0.499-1.114-1.114s0.499-1.114,1.114-1.114h6.684
			c0.615,0,1.114,0.499,1.114,1.114S678.973,188.247,678.357,188.247z"/>
	</g>
	<g>
		<path fill="#F15A29" d="M678.357,194.93h-6.684c-0.615,0-1.114-0.499-1.114-1.114s0.499-1.114,1.114-1.114h6.684
			c0.615,0,1.114,0.499,1.114,1.114S678.973,194.93,678.357,194.93z"/>
	</g>
	<g>
		<path fill="#F15A29" d="M678.357,201.614h-6.684c-0.615,0-1.114-0.499-1.114-1.114s0.499-1.114,1.114-1.114h6.684
			c0.615,0,1.114,0.499,1.114,1.114S678.973,201.614,678.357,201.614z"/>
	</g>
	<g>
		<path fill="#F15A29" d="M678.357,208.297h-6.684c-0.615,0-1.114-0.499-1.114-1.114s0.499-1.114,1.114-1.114h6.684
			c0.615,0,1.114,0.499,1.114,1.114S678.973,208.297,678.357,208.297z"/>
	</g>
</g>
<g>
	<path fill="#F15A29" d="M678.357,214.98c-0.615,0-1.114-0.499-1.114-1.114v-43.441c0-0.615,0.499-1.114,1.114-1.114
		s1.114,0.499,1.114,1.114v43.441C679.472,214.481,678.973,214.98,678.357,214.98z"/>
</g>
<g>
	<path fill="#F15A29" d="M671.674,214.98c-0.615,0-1.114-0.499-1.114-1.114v-43.441c0-0.615,0.499-1.114,1.114-1.114
		s1.114,0.499,1.114,1.114v43.441C672.788,214.481,672.289,214.98,671.674,214.98z"/>
</g>
<g>
	<path fill="#F15A29" d="M167.083,191.588c-0.615,0-1.114-0.499-1.114-1.114v-33.417c0-0.615,0.499-1.114,1.114-1.114
		s1.114,0.499,1.114,1.114v33.417C168.196,191.09,167.698,191.588,167.083,191.588z"/>
</g>
<g>
	<path fill="#F15A29" d="M160.399,191.588c-0.615,0-1.114-0.499-1.114-1.114v-33.417c0-0.615,0.499-1.114,1.114-1.114
		s1.114,0.499,1.114,1.114v33.417C161.513,191.09,161.015,191.588,160.399,191.588z"/>
</g>
<g>
	<path fill="#F15A29" d="M167.083,171.539h-6.683c-0.615,0-1.114-0.499-1.114-1.114s0.499-1.114,1.114-1.114h6.683
		c0.615,0,1.114,0.499,1.114,1.114S167.698,171.539,167.083,171.539z"/>
</g>
<g>
	<path fill="#F15A29" d="M167.083,164.855h-6.683c-0.615,0-1.114-0.499-1.114-1.114s0.499-1.114,1.114-1.114h6.683
		c0.615,0,1.114,0.499,1.114,1.114S167.698,164.855,167.083,164.855z"/>
</g>
<g>
	<path fill="#F15A29" d="M167.083,178.222h-6.683c-0.615,0-1.114-0.499-1.114-1.114s0.499-1.114,1.114-1.114h6.683
		c0.615,0,1.114,0.499,1.114,1.114S167.698,178.222,167.083,178.222z"/>
</g>
<g>
	<path fill="#F15A29" d="M140.35,184.905h-6.684c-0.615,0-1.114-0.499-1.114-1.114s0.499-1.114,1.114-1.114h6.684
		c0.615,0,1.114,0.499,1.114,1.114S140.965,184.905,140.35,184.905z"/>
</g>
<g>
	<g>
		<path fill="#F15A29" d="M133.667,188.247c-0.615,0-1.114-0.499-1.114-1.114v-3.341c0-0.615,0.499-1.114,1.114-1.114
			s1.114,0.499,1.114,1.114v3.341C134.78,187.748,134.282,188.247,133.667,188.247z"/>
	</g>
	<g>
		<path fill="#F15A29" d="M140.35,188.247c-0.615,0-1.114-0.499-1.114-1.114v-3.341c0-0.615,0.499-1.114,1.114-1.114
			s1.114,0.499,1.114,1.114v3.341C141.463,187.748,140.965,188.247,140.35,188.247z"/>
	</g>
	<g>
		<path fill="#F15A29" d="M147.033,188.247c-0.615,0-1.114-0.499-1.114-1.114v-3.341c0-0.615,0.499-1.114,1.114-1.114
			s1.114,0.499,1.114,1.114v3.341C148.147,187.748,147.648,188.247,147.033,188.247z"/>
	</g>
	<g>
		<path fill="#F15A29" d="M153.716,188.247c-0.615,0-1.114-0.499-1.114-1.114v-3.341c0-0.615,0.499-1.114,1.114-1.114
			s1.114,0.499,1.114,1.114v3.341C154.83,187.748,154.332,188.247,153.716,188.247z"/>
	</g>
	<g>
		<path fill="#F15A29" d="M160.399,188.247c-0.615,0-1.114-0.499-1.114-1.114v-3.341c0-0.615,0.499-1.114,1.114-1.114
			s1.114,0.499,1.114,1.114v3.341C161.513,187.748,161.015,188.247,160.399,188.247z"/>
	</g>
	<g>
		<path fill="#F15A29" d="M167.083,188.247c-0.615,0-1.114-0.499-1.114-1.114v-3.341c0-0.615,0.499-1.114,1.114-1.114
			s1.114,0.499,1.114,1.114v3.341C168.196,187.748,167.698,188.247,167.083,188.247z"/>
	</g>
	<g>
		<path fill="#F15A29" d="M173.766,188.247c-0.615,0-1.114-0.499-1.114-1.114v-3.341c0-0.615,0.499-1.114,1.114-1.114
			s1.114,0.499,1.114,1.114v3.341C174.88,187.748,174.381,188.247,173.766,188.247z"/>
	</g>
	<g>
		<path fill="#F15A29" d="M180.449,188.247c-0.615,0-1.114-0.499-1.114-1.114v-3.341c0-0.615,0.499-1.114,1.114-1.114
			s1.114,0.499,1.114,1.114v3.341C181.563,187.748,181.064,188.247,180.449,188.247z"/>
	</g>
	<g>
		<path fill="#F15A29" d="M187.133,188.247c-0.615,0-1.114-0.499-1.114-1.114v-3.341c0-0.615,0.499-1.114,1.114-1.114
			s1.114,0.499,1.114,1.114v3.341C188.247,187.748,187.748,188.247,187.133,188.247z"/>
	</g>
	<g>
		<path fill="#F15A29" d="M193.816,188.247c-0.615,0-1.114-0.499-1.114-1.114v-3.341c0-0.615,0.499-1.114,1.114-1.114
			s1.114,0.499,1.114,1.114v3.341C194.93,187.748,194.431,188.247,193.816,188.247z"/>
	</g>
	<g>
		<path fill="#F15A29" d="M200.5,188.247c-0.615,0-1.114-0.499-1.114-1.114v-3.341c0-0.615,0.499-1.114,1.114-1.114
			s1.114,0.499,1.114,1.114v3.341C201.613,187.748,201.115,188.247,200.5,188.247z"/>
	</g>
</g>
<g>
	<path fill="#F15A29" d="M207.183,188.247c-0.615,0-1.114-0.499-1.114-1.114v-2.228h-79.086c-0.615,0-1.114-0.499-1.114-1.114
		s0.499-1.114,1.114-1.114h80.2c0.615,0,1.114,0.499,1.114,1.114v3.341C208.296,187.748,207.798,188.247,207.183,188.247z"/>
</g>
<g>
	<path fill="#F15A29" d="M207.183,218.323h-86.883c-0.615,0-1.114-0.499-1.114-1.114s0.499-1.114,1.114-1.114h86.883
		c0.615,0,1.114,0.499,1.114,1.114S207.798,218.323,207.183,218.323z"/>
</g>
<g>
	<g>
		<g>
			<g>
				<path fill="#F15A29" d="M280.699,241.713c-0.615,0-1.114-0.499-1.114-1.114v-3.342c0-0.615,0.499-1.114,1.114-1.114
					s1.114,0.499,1.114,1.114v3.342C281.813,241.214,281.314,241.713,280.699,241.713z"/>
			</g>
			<g>
				<path fill="#F15A29" d="M287.383,241.713c-0.615,0-1.114-0.499-1.114-1.114v-3.342c0-0.615,0.499-1.114,1.114-1.114
					s1.114,0.499,1.114,1.114v3.342C288.497,241.214,287.998,241.713,287.383,241.713z"/>
			</g>
			<g>
				<path fill="#F15A29" d="M294.066,241.713c-0.615,0-1.114-0.499-1.114-1.114v-3.342c0-0.615,0.499-1.114,1.114-1.114
					s1.114,0.499,1.114,1.114v3.342C295.18,241.214,294.681,241.713,294.066,241.713z"/>
			</g>
			<g>
				<path fill="#F15A29" d="M300.75,241.713c-0.615,0-1.114-0.499-1.114-1.114v-3.342c0-0.615,0.499-1.114,1.114-1.114
					s1.114,0.499,1.114,1.114v3.342C301.863,241.214,301.365,241.713,300.75,241.713z"/>
			</g>
			<g>
				<path fill="#F15A29" d="M307.432,241.713c-0.615,0-1.114-0.499-1.114-1.114v-3.342c0-0.615,0.499-1.114,1.114-1.114
					s1.114,0.499,1.114,1.114v3.342C308.546,241.214,308.047,241.713,307.432,241.713z"/>
			</g>
			<g>
				<path fill="#F15A29" d="M314.116,241.713c-0.615,0-1.114-0.499-1.114-1.114v-3.342c0-0.615,0.499-1.114,1.114-1.114
					s1.114,0.499,1.114,1.114v3.342C315.229,241.214,314.731,241.713,314.116,241.713z"/>
			</g>
			<g>
				<path fill="#F15A29" d="M320.799,241.713c-0.615,0-1.114-0.499-1.114-1.114v-3.342c0-0.615,0.499-1.114,1.114-1.114
					s1.114,0.499,1.114,1.114v3.342C321.913,241.214,321.414,241.713,320.799,241.713z"/>
			</g>
			<g>
				<path fill="#F15A29" d="M327.482,241.713c-0.615,0-1.114-0.499-1.114-1.114v-3.342c0-0.615,0.499-1.114,1.114-1.114
					s1.114,0.499,1.114,1.114v3.342C328.596,241.214,328.098,241.713,327.482,241.713z"/>
			</g>
			<g>
				<path fill="#F15A29" d="M334.166,241.713c-0.615,0-1.114-0.499-1.114-1.114v-3.342c0-0.615,0.499-1.114,1.114-1.114
					s1.114,0.499,1.114,1.114v3.342C335.279,241.214,334.781,241.713,334.166,241.713z"/>
			</g>
			<g>
				<path fill="#F15A29" d="M340.849,241.713c-0.615,0-1.114-0.499-1.114-1.114v-3.342c0-0.615,0.499-1.114,1.114-1.114
					s1.114,0.499,1.114,1.114v3.342C341.963,241.214,341.464,241.713,340.849,241.713z"/>
			</g>
			<g>
				<path fill="#F15A29" d="M347.532,241.713c-0.615,0-1.114-0.499-1.114-1.114v-3.342c0-0.615,0.499-1.114,1.114-1.114
					s1.114,0.499,1.114,1.114v3.342C348.646,241.214,348.147,241.713,347.532,241.713z"/>
			</g>
		</g>
		<g>
			<path fill="#F15A29" d="M534.665,238.372H220.549c-0.615,0-1.114-0.499-1.114-1.114s0.499-1.114,1.114-1.114h314.116
				c0.615,0,1.114,0.499,1.114,1.114S535.28,238.372,534.665,238.372z"/>
		</g>
	</g>
	<g>
		<g>
			<g>
				<path fill="#F15A29" d="M227.232,241.713c-0.615,0-1.114-0.499-1.114-1.114v-3.342c0-0.615,0.499-1.114,1.114-1.114
					s1.114,0.499,1.114,1.114v3.342C228.346,241.214,227.848,241.713,227.232,241.713z"/>
			</g>
			<g>
				<path fill="#F15A29" d="M233.916,241.713c-0.615,0-1.114-0.499-1.114-1.114v-3.342c0-0.615,0.499-1.114,1.114-1.114
					s1.114,0.499,1.114,1.114v3.342C235.03,241.214,234.531,241.713,233.916,241.713z"/>
			</g>
			<g>
				<path fill="#F15A29" d="M240.599,241.713c-0.615,0-1.114-0.499-1.114-1.114v-3.342c0-0.615,0.499-1.114,1.114-1.114
					s1.114,0.499,1.114,1.114v3.342C241.713,241.214,241.214,241.713,240.599,241.713z"/>
			</g>
			<g>
				<path fill="#F15A29" d="M247.283,241.713c-0.615,0-1.114-0.499-1.114-1.114v-3.342c0-0.615,0.499-1.114,1.114-1.114
					s1.114,0.499,1.114,1.114v3.342C248.396,241.214,247.898,241.713,247.283,241.713z"/>
			</g>
			<g>
				<path fill="#F15A29" d="M253.966,241.713c-0.615,0-1.114-0.499-1.114-1.114v-3.342c0-0.615,0.499-1.114,1.114-1.114
					s1.114,0.499,1.114,1.114v3.342C255.08,241.214,254.581,241.713,253.966,241.713z"/>
			</g>
			<g>
				<path fill="#F15A29" d="M260.649,241.713c-0.615,0-1.114-0.499-1.114-1.114v-3.342c0-0.615,0.499-1.114,1.114-1.114
					s1.114,0.499,1.114,1.114v3.342C261.763,241.214,261.265,241.713,260.649,241.713z"/>
			</g>
			<g>
				<path fill="#F15A29" d="M267.333,241.713c-0.615,0-1.114-0.499-1.114-1.114v-3.342c0-0.615,0.499-1.114,1.114-1.114
					s1.114,0.499,1.114,1.114v3.342C268.446,241.214,267.948,241.713,267.333,241.713z"/>
			</g>
			<g>
				<path fill="#F15A29" d="M274.016,241.713c-0.615,0-1.114-0.499-1.114-1.114v-3.342c0-0.615,0.499-1.114,1.114-1.114
					s1.114,0.499,1.114,1.114v3.342C275.13,241.214,274.631,241.713,274.016,241.713z"/>
			</g>
		</g>
	</g>
	<g>
		<g>
			<g>
				<path fill="#F15A29" d="M354.216,241.713c-0.615,0-1.114-0.499-1.114-1.114v-3.342c0-0.615,0.499-1.114,1.114-1.114
					s1.114,0.499,1.114,1.114v3.342C355.33,241.214,354.831,241.713,354.216,241.713z"/>
			</g>
			<g>
				<path fill="#F15A29" d="M360.899,241.713c-0.615,0-1.114-0.499-1.114-1.114v-3.342c0-0.615,0.499-1.114,1.114-1.114
					s1.114,0.499,1.114,1.114v3.342C362.013,241.214,361.515,241.713,360.899,241.713z"/>
			</g>
			<g>
				<path fill="#F15A29" d="M367.582,241.713c-0.615,0-1.114-0.499-1.114-1.114v-3.342c0-0.615,0.499-1.114,1.114-1.114
					s1.114,0.499,1.114,1.114v3.342C368.696,241.214,368.197,241.713,367.582,241.713z"/>
			</g>
			<g>
				<path fill="#F15A29" d="M374.266,241.713c-0.615,0-1.114-0.499-1.114-1.114v-3.342c0-0.615,0.499-1.114,1.114-1.114
					s1.114,0.499,1.114,1.114v3.342C375.38,241.214,374.881,241.713,374.266,241.713z"/>
			</g>
			<g>
				<path fill="#F15A29" d="M380.949,241.713c-0.615,0-1.114-0.499-1.114-1.114v-3.342c0-0.615,0.499-1.114,1.114-1.114
					s1.114,0.499,1.114,1.114v3.342C382.063,241.214,381.564,241.713,380.949,241.713z"/>
			</g>
			<g>
				<path fill="#F15A29" d="M387.632,241.713c-0.615,0-1.114-0.499-1.114-1.114v-3.342c0-0.615,0.499-1.114,1.114-1.114
					s1.114,0.499,1.114,1.114v3.342C388.746,241.214,388.247,241.713,387.632,241.713z"/>
			</g>
			<g>
				<path fill="#F15A29" d="M394.315,241.713c-0.615,0-1.114-0.499-1.114-1.114v-3.342c0-0.615,0.499-1.114,1.114-1.114
					s1.114,0.499,1.114,1.114v3.342C395.43,241.214,394.931,241.713,394.315,241.713z"/>
			</g>
			<g>
				<path fill="#F15A29" d="M400.999,241.713c-0.615,0-1.114-0.499-1.114-1.114v-3.342c0-0.615,0.499-1.114,1.114-1.114
					s1.114,0.499,1.114,1.114v3.342C402.113,241.214,401.614,241.713,400.999,241.713z"/>
			</g>
		</g>
	</g>
	<g>
		<g>
			<g>
				<path fill="#F15A29" d="M400.999,241.713c-0.615,0-1.114-0.499-1.114-1.114v-3.342c0-0.615,0.499-1.114,1.114-1.114
					s1.114,0.499,1.114,1.114v3.342C402.113,241.214,401.614,241.713,400.999,241.713z"/>
			</g>
			<g>
				<path fill="#F15A29" d="M407.683,241.713c-0.615,0-1.114-0.499-1.114-1.114v-3.342c0-0.615,0.499-1.114,1.114-1.114
					s1.114,0.499,1.114,1.114v3.342C408.797,241.214,408.298,241.713,407.683,241.713z"/>
			</g>
			<g>
				<path fill="#F15A29" d="M414.365,241.713c-0.615,0-1.114-0.499-1.114-1.114v-3.342c0-0.615,0.499-1.114,1.114-1.114
					s1.114,0.499,1.114,1.114v3.342C415.479,241.214,414.98,241.713,414.365,241.713z"/>
			</g>
			<g>
				<path fill="#F15A29" d="M421.049,241.713c-0.615,0-1.114-0.499-1.114-1.114v-3.342c0-0.615,0.499-1.114,1.114-1.114
					s1.114,0.499,1.114,1.114v3.342C422.163,241.214,421.664,241.713,421.049,241.713z"/>
			</g>
			<g>
				<path fill="#F15A29" d="M427.732,241.713c-0.615,0-1.114-0.499-1.114-1.114v-3.342c0-0.615,0.499-1.114,1.114-1.114
					s1.114,0.499,1.114,1.114v3.342C428.847,241.214,428.348,241.713,427.732,241.713z"/>
			</g>
			<g>
				<path fill="#F15A29" d="M434.416,241.713c-0.615,0-1.114-0.499-1.114-1.114v-3.342c0-0.615,0.499-1.114,1.114-1.114
					s1.114,0.499,1.114,1.114v3.342C435.53,241.214,435.031,241.713,434.416,241.713z"/>
			</g>
			<g>
				<path fill="#F15A29" d="M441.099,241.713c-0.615,0-1.114-0.499-1.114-1.114v-3.342c0-0.615,0.499-1.114,1.114-1.114
					s1.114,0.499,1.114,1.114v3.342C442.213,241.214,441.714,241.713,441.099,241.713z"/>
			</g>
			<g>
				<path fill="#F15A29" d="M447.782,241.713c-0.615,0-1.114-0.499-1.114-1.114v-3.342c0-0.615,0.499-1.114,1.114-1.114
					s1.114,0.499,1.114,1.114v3.342C448.896,241.214,448.397,241.713,447.782,241.713z"/>
			</g>
		</g>
	</g>
	<g>
		<g>
			<g>
				<path fill="#F15A29" d="M454.466,241.713c-0.615,0-1.114-0.499-1.114-1.114v-3.342c0-0.615,0.499-1.114,1.114-1.114
					s1.114,0.499,1.114,1.114v3.342C455.58,241.214,455.081,241.713,454.466,241.713z"/>
			</g>
			<g>
				<path fill="#F15A29" d="M461.149,241.713c-0.615,0-1.114-0.499-1.114-1.114v-3.342c0-0.615,0.499-1.114,1.114-1.114
					s1.114,0.499,1.114,1.114v3.342C462.264,241.214,461.765,241.713,461.149,241.713z"/>
			</g>
			<g>
				<path fill="#F15A29" d="M467.833,241.713c-0.615,0-1.114-0.499-1.114-1.114v-3.342c0-0.615,0.499-1.114,1.114-1.114
					s1.114,0.499,1.114,1.114v3.342C468.947,241.214,468.448,241.713,467.833,241.713z"/>
			</g>
			<g>
				<path fill="#F15A29" d="M474.516,241.713c-0.615,0-1.114-0.499-1.114-1.114v-3.342c0-0.615,0.499-1.114,1.114-1.114
					s1.114,0.499,1.114,1.114v3.342C475.63,241.214,475.131,241.713,474.516,241.713z"/>
			</g>
			<g>
				<path fill="#F15A29" d="M481.198,241.713c-0.615,0-1.114-0.499-1.114-1.114v-3.342c0-0.615,0.499-1.114,1.114-1.114
					s1.114,0.499,1.114,1.114v3.342C482.312,241.214,481.813,241.713,481.198,241.713z"/>
			</g>
			<g>
				<path fill="#F15A29" d="M487.883,241.713c-0.615,0-1.114-0.499-1.114-1.114v-3.342c0-0.615,0.499-1.114,1.114-1.114
					s1.114,0.499,1.114,1.114v3.342C488.997,241.214,488.498,241.713,487.883,241.713z"/>
			</g>
			<g>
				<path fill="#F15A29" d="M494.565,241.713c-0.615,0-1.114-0.499-1.114-1.114v-3.342c0-0.615,0.499-1.114,1.114-1.114
					s1.114,0.499,1.114,1.114v3.342C495.68,241.214,495.181,241.713,494.565,241.713z"/>
			</g>
			<g>
				<path fill="#F15A29" d="M501.248,241.713c-0.615,0-1.114-0.499-1.114-1.114v-3.342c0-0.615,0.499-1.114,1.114-1.114
					s1.114,0.499,1.114,1.114v3.342C502.362,241.214,501.863,241.713,501.248,241.713z"/>
			</g>
		</g>
	</g>
	<g>
		<g>
			<g>
				<path fill="#F15A29" d="M521.299,241.713c-0.615,0-1.114-0.499-1.114-1.114v-3.342c0-0.615,0.499-1.114,1.114-1.114
					s1.114,0.499,1.114,1.114v3.342C522.413,241.214,521.914,241.713,521.299,241.713z"/>
			</g>
		</g>
	</g>
	<g>
		<g>
			<g>
				<path fill="#F15A29" d="M527.981,241.713c-0.615,0-1.114-0.499-1.114-1.114v-3.342c0-0.615,0.499-1.114,1.114-1.114
					s1.114,0.499,1.114,1.114v3.342C529.096,241.214,528.597,241.713,527.981,241.713z"/>
			</g>
		</g>
	</g>
	<g>
		<g>
			<g>
				<path fill="#F15A29" d="M507.932,241.713c-0.615,0-1.114-0.499-1.114-1.114v-3.342c0-0.615,0.499-1.114,1.114-1.114
					s1.114,0.499,1.114,1.114v3.342C509.046,241.214,508.547,241.713,507.932,241.713z"/>
			</g>
			<g>
				<path fill="#F15A29" d="M514.615,241.713c-0.615,0-1.114-0.499-1.114-1.114v-3.342c0-0.615,0.499-1.114,1.114-1.114
					s1.114,0.499,1.114,1.114v3.342C515.729,241.214,515.23,241.713,514.615,241.713z"/>
			</g>
		</g>
	</g>
</g>
<g>
	<path fill="#F15A29" d="M167.083,208.297c-0.615,0-1.114-0.499-1.114-1.114v-43.442c0-0.615,0.499-1.114,1.114-1.114h40.1
		c0.615,0,1.114,0.499,1.114,1.114v16.708c0,0.615-0.499,1.114-1.114,1.114s-1.114-0.499-1.114-1.114v-15.594h-37.873v42.328
		C168.196,207.798,167.698,208.297,167.083,208.297z"/>
</g>
<g>
	<path fill="#F15A29" d="M207.183,211.639c-0.615,0-1.114-0.499-1.114-1.114v-20.05c0-0.615,0.499-1.114,1.114-1.114
		s1.114,0.499,1.114,1.114v20.05C208.296,211.14,207.798,211.639,207.183,211.639z"/>
</g>
<g>
	<path fill="#F15A29" d="M207.183,241.713c-0.615,0-1.114-0.499-1.114-1.114v-23.391c0-0.615,0.499-1.114,1.114-1.114
		s1.114,0.499,1.114,1.114v23.391C208.296,241.214,207.798,241.713,207.183,241.713z"/>
</g>
<g>
	<path fill="#F15A29" d="M220.549,211.639c-0.615,0-1.114-0.499-1.114-1.114v-20.05c0-0.615,0.499-1.114,1.114-1.114h93.566
		c0.615,0,1.114,0.499,1.114,1.114s-0.499,1.114-1.114,1.114h-92.452v18.937C221.663,211.14,221.165,211.639,220.549,211.639z"/>
</g>
<g>
	<path fill="#F15A29" d="M220.549,228.347c-0.615,0-1.114-0.499-1.114-1.114v-13.367c0-0.615,0.499-1.114,1.114-1.114
		s1.114,0.499,1.114,1.114v13.367C221.663,227.848,221.165,228.347,220.549,228.347z"/>
</g>
<g>
	<path fill="#F15A29" d="M314.116,211.639c-0.615,0-1.114-0.499-1.114-1.114v-20.05c0-0.615,0.499-1.114,1.114-1.114
		s1.114,0.499,1.114,1.114v20.05C315.229,211.14,314.731,211.639,314.116,211.639z"/>
</g>
<g>
	<path fill="#F15A29" d="M314.116,235.031c-0.615,0-1.114-0.499-1.114-1.114v-20.051c0-0.615,0.499-1.114,1.114-1.114
		s1.114,0.499,1.114,1.114v20.051C315.229,234.532,314.731,235.031,314.116,235.031z"/>
</g>
<g>
	<path fill="#F15A29" d="M411.024,211.639c-0.615,0-1.114-0.499-1.114-1.114v-20.05c0-0.615,0.499-1.114,1.114-1.114
		s1.114,0.499,1.114,1.114v20.05C412.139,211.14,411.64,211.639,411.024,211.639z"/>
</g>
<g>
	<path fill="#F15A29" d="M411.024,235.031c-0.615,0-1.114-0.499-1.114-1.114v-20.051c0-0.615,0.499-1.114,1.114-1.114
		s1.114,0.499,1.114,1.114v20.051C412.139,234.532,411.64,235.031,411.024,235.031z"/>
</g>
<g>
	<path fill="#F15A29" d="M507.932,211.639c-0.615,0-1.114-0.499-1.114-1.114v-20.05c0-0.615,0.499-1.114,1.114-1.114
		s1.114,0.499,1.114,1.114v20.05C509.046,211.14,508.547,211.639,507.932,211.639z"/>
</g>
<g>
	<path fill="#F15A29" d="M507.932,235.031c-0.615,0-1.114-0.499-1.114-1.114v-20.051c0-0.615,0.499-1.114,1.114-1.114
		s1.114,0.499,1.114,1.114v20.051C509.046,234.532,508.547,235.031,507.932,235.031z"/>
</g>
<g>
	<path fill="#F15A29" d="M314.115,214.98h-93.566c-0.615,0-1.114-0.499-1.114-1.114s0.499-1.114,1.114-1.114h93.566
		c0.615,0,1.114,0.499,1.114,1.114S314.73,214.98,314.115,214.98z"/>
</g>
<g>
	<g>
		<path fill="#F15A29" d="M591.474,214.98c-0.615,0-1.114-0.499-1.114-1.114v-6.823c0-0.615,0.499-1.114,1.114-1.114
			s1.114,0.499,1.114,1.114v6.823C592.588,214.481,592.089,214.98,591.474,214.98z"/>
	</g>
	<g>
		<path fill="#F15A29" d="M608.183,214.98c-0.615,0-1.114-0.499-1.114-1.114v-6.823c0-0.615,0.499-1.114,1.114-1.114
			s1.114,0.499,1.114,1.114v6.823C609.297,214.481,608.798,214.98,608.183,214.98z"/>
	</g>
	<g>
		<path fill="#F15A29" d="M608.183,208.157h-16.709c-0.615,0-1.114-0.499-1.114-1.114s0.499-1.114,1.114-1.114h16.709
			c0.615,0,1.114,0.499,1.114,1.114S608.798,208.157,608.183,208.157z"/>
	</g>
</g>
<g>
	<g>
		<path fill="#F15A29" d="M591.474,204.956c-0.615,0-1.114-0.499-1.114-1.114v-6.684c0-0.615,0.499-1.114,1.114-1.114
			s1.114,0.499,1.114,1.114v6.684C592.588,204.457,592.089,204.956,591.474,204.956z"/>
	</g>
	<g>
		<path fill="#F15A29" d="M608.183,204.956c-0.615,0-1.114-0.499-1.114-1.114v-6.684c0-0.615,0.499-1.114,1.114-1.114
			s1.114,0.499,1.114,1.114v6.684C609.297,204.457,608.798,204.956,608.183,204.956z"/>
	</g>
	<g>
		<path fill="#F15A29" d="M608.183,198.272h-16.709c-0.615,0-1.114-0.499-1.114-1.114s0.499-1.114,1.114-1.114h16.709
			c0.615,0,1.114,0.499,1.114,1.114S608.798,198.272,608.183,198.272z"/>
	</g>
</g>
<g>
	<path fill="#F15A29" d="M411.024,191.588h-23.393c-0.615,0-1.114-0.499-1.114-1.114s0.499-1.114,1.114-1.114h23.393
		c0.615,0,1.114,0.499,1.114,1.114S411.64,191.588,411.024,191.588z"/>
</g>
<g>
	<path fill="#F15A29" d="M367.582,191.588h-53.466c-0.615,0-1.114-0.499-1.114-1.114s0.499-1.114,1.114-1.114h53.466
		c0.615,0,1.114,0.499,1.114,1.114S368.197,191.588,367.582,191.588z"/>
</g>
<g>
	<path fill="#F15A29" d="M411.024,214.98h-23.393c-0.615,0-1.114-0.499-1.114-1.114s0.499-1.114,1.114-1.114h23.393
		c0.615,0,1.114,0.499,1.114,1.114S411.64,214.98,411.024,214.98z"/>
</g>
<g>
	<path fill="#F15A29" d="M367.582,214.98h-53.467c-0.615,0-1.114-0.499-1.114-1.114s0.499-1.114,1.114-1.114h53.467
		c0.615,0,1.114,0.499,1.114,1.114S368.197,214.98,367.582,214.98z"/>
</g>
<g>
	<path fill="#F15A29" d="M507.932,191.588h-96.907c-0.615,0-1.114-0.499-1.114-1.114s0.499-1.114,1.114-1.114h96.907
		c0.615,0,1.114,0.499,1.114,1.114S508.547,191.588,507.932,191.588z"/>
</g>
<g>
	<path fill="#F15A29" d="M507.932,214.98h-96.907c-0.615,0-1.114-0.499-1.114-1.114s0.499-1.114,1.114-1.114h96.907
		c0.615,0,1.114,0.499,1.114,1.114S508.547,214.98,507.932,214.98z"/>
</g>
<path fill="#F15A29" d="M610.967,231.688c0.614,0,1.113,0.499,1.113,1.114s-0.499,1.114-1.113,1.114h-10.025
	c-0.614,0-1.113-0.499-1.113-1.114s0.499-1.114,1.113-1.114H610.967 M610.967,229.46h-10.025c-1.843,0-3.341,1.499-3.341,3.342
	s1.498,3.342,3.341,3.342h10.025c1.843,0,3.341-1.499,3.341-3.342S612.81,229.46,610.967,229.46L610.967,229.46z"/>
<path fill="#F15A29" d="M589.246,231.688c0.615,0,1.113,0.499,1.113,1.114s-0.498,1.114-1.113,1.114h-10.025
	c-0.615,0-1.114-0.499-1.114-1.114s0.499-1.114,1.114-1.114H589.246 M589.246,229.46h-10.025c-1.843,0-3.342,1.499-3.342,3.342
	s1.499,3.342,3.342,3.342h10.025c1.843,0,3.341-1.499,3.341-3.342S591.089,229.46,589.246,229.46L589.246,229.46z"/>
<path fill="#F15A29" d="M632.688,231.688c0.615,0,1.114,0.499,1.114,1.114s-0.499,1.114-1.114,1.114h-10.025
	c-0.615,0-1.113-0.499-1.113-1.114s0.498-1.114,1.113-1.114H632.688 M632.688,229.46h-10.025c-1.843,0-3.341,1.499-3.341,3.342
	s1.498,3.342,3.341,3.342h10.025c1.843,0,3.342-1.499,3.342-3.342S634.53,229.46,632.688,229.46L632.688,229.46z"/>
<path fill="#F15A29" d="M248.702,284.041c0.923,0,1.671,0.749,1.671,1.672c0,0.922-0.748,1.67-1.671,1.67
	c-0.922,0-1.67-0.748-1.67-1.67C247.031,284.79,247.779,284.041,248.702,284.041 M248.702,281.813c-2.149,0-3.898,1.749-3.898,3.899
	c0,2.149,1.749,3.897,3.898,3.897c2.15,0,3.898-1.748,3.898-3.897C252.6,283.562,250.852,281.813,248.702,281.813L248.702,281.813z"
	/>
<path fill="#F15A29" d="M295.485,284.041c0.923,0,1.671,0.749,1.671,1.672c0,0.922-0.748,1.67-1.671,1.67s-1.67-0.748-1.67-1.67
	C293.814,284.79,294.562,284.041,295.485,284.041 M295.485,281.813c-2.149,0-3.898,1.749-3.898,3.899
	c0,2.149,1.749,3.897,3.898,3.897c2.15,0,3.898-1.748,3.898-3.897C299.383,283.562,297.635,281.813,295.485,281.813L295.485,281.813
	z"/>
<path fill="#F15A29" d="M342.269,284.041c0.923,0,1.67,0.749,1.67,1.672c0,0.922-0.748,1.67-1.67,1.67s-1.671-0.748-1.671-1.67
	C340.597,284.79,341.346,284.041,342.269,284.041 M342.269,281.813c-2.15,0-3.899,1.749-3.899,3.899c0,2.149,1.75,3.897,3.899,3.897
	c2.149,0,3.898-1.748,3.898-3.897C346.167,283.562,344.418,281.813,342.269,281.813L342.269,281.813z"/>
<path fill="#F15A29" d="M389.051,284.041c0.924,0,1.671,0.749,1.671,1.672c0,0.922-0.747,1.67-1.671,1.67
	c-0.922,0-1.67-0.748-1.67-1.67C387.381,284.79,388.129,284.041,389.051,284.041 M389.051,281.813c-2.149,0-3.897,1.749-3.897,3.899
	c0,2.149,1.748,3.897,3.897,3.897s3.898-1.748,3.898-3.897C392.949,283.562,391.2,281.813,389.051,281.813L389.051,281.813z"/>
<path fill="#F15A29" d="M435.835,284.041c0.922,0,1.671,0.749,1.671,1.672c0,0.922-0.749,1.67-1.671,1.67
	c-0.923,0-1.672-0.748-1.672-1.67C434.163,284.79,434.912,284.041,435.835,284.041 M435.835,281.813
	c-2.15,0-3.899,1.749-3.899,3.899c0,2.149,1.749,3.897,3.899,3.897c2.149,0,3.898-1.748,3.898-3.897
	C439.733,283.562,437.984,281.813,435.835,281.813L435.835,281.813z"/>
<path fill="#F15A29" d="M482.618,284.041c0.922,0,1.671,0.749,1.671,1.672c0,0.922-0.749,1.67-1.671,1.67s-1.671-0.748-1.671-1.67
	C480.947,284.79,481.696,284.041,482.618,284.041 M482.618,281.813c-2.149,0-3.898,1.749-3.898,3.899
	c0,2.149,1.749,3.897,3.898,3.897s3.898-1.748,3.898-3.897C486.517,283.562,484.768,281.813,482.618,281.813L482.618,281.813z"/>
<path fill="#F15A29" d="M529.401,284.041c0.923,0,1.67,0.749,1.67,1.672c0,0.922-0.747,1.67-1.67,1.67s-1.671-0.748-1.671-1.67
	C527.73,284.79,528.479,284.041,529.401,284.041 M529.401,281.813c-2.149,0-3.898,1.749-3.898,3.899
	c0,2.149,1.749,3.897,3.898,3.897s3.897-1.748,3.897-3.897C533.299,283.562,531.551,281.813,529.401,281.813L529.401,281.813z"/>
<path fill="#F15A29" d="M576.185,284.041c0.922,0,1.671,0.749,1.671,1.672c0,0.922-0.749,1.67-1.671,1.67
	c-0.923,0-1.672-0.748-1.672-1.67C574.513,284.79,575.262,284.041,576.185,284.041 M576.185,281.813
	c-2.15,0-3.899,1.749-3.899,3.899c0,2.149,1.749,3.897,3.899,3.897c2.149,0,3.898-1.748,3.898-3.897
	C580.083,283.562,578.334,281.813,576.185,281.813L576.185,281.813z"/>
<g>
	<path fill="#F15A29" d="M387.632,160.4"/>
</g>
<g>
	<path fill="#F15A29" d="M521.299,235.031c-0.615,0-1.114-0.499-1.114-1.114v-56.809c0-1.228-0.999-2.228-2.228-2.228
		s-2.228,1-2.228,2.228v56.809c0,0.615-0.499,1.114-1.114,1.114s-1.114-0.499-1.114-1.114v-56.809c0-2.457,1.999-4.455,4.456-4.455
		s4.456,1.999,4.456,4.455v56.809C522.413,234.532,521.914,235.031,521.299,235.031z"/>
</g>
<g>
	<line fill="#F15A29" x1="387.632" y1="203.841" x2="387.632" y2="233.917"/>
	<path fill="#F15A29" d="M387.632,235.031c-0.615,0-1.114-0.499-1.114-1.114v-30.075c0-0.615,0.499-1.114,1.114-1.114
		s1.114,0.499,1.114,1.114v30.075C388.746,234.532,388.247,235.031,387.632,235.031z"/>
</g>
<g>
	<line fill="#F15A29" x1="367.582" y1="233.917" x2="367.582" y2="203.841"/>
	<path fill="#F15A29" d="M367.582,235.031c-0.615,0-1.114-0.499-1.114-1.114v-30.075c0-0.615,0.499-1.114,1.114-1.114
		s1.114,0.499,1.114,1.114v30.075C368.696,234.532,368.197,235.031,367.582,235.031z"/>
</g>
<g>
	<path fill="#F15A29" d="M390.975,204.956h-26.734c-0.615,0-1.114-0.499-1.114-1.114s0.499-1.114,1.114-1.114h26.734
		c0.615,0,1.114,0.499,1.114,1.114S391.59,204.956,390.975,204.956z"/>
</g>
<g>
	<path fill="#F15A29" d="M593.145,186.576h-16.708c-0.433,0-0.825-0.25-1.009-0.642l-3.878-8.287
		c-0.261-0.557-0.021-1.22,0.537-1.481c0.556-0.26,1.219-0.021,1.48,0.537l3.578,7.646h15.29l3.59-7.685
		c0.259-0.557,0.921-0.801,1.48-0.538c0.557,0.26,0.798,0.923,0.537,1.48l-3.89,8.327
		C593.971,186.325,593.577,186.576,593.145,186.576z"/>
</g>
<g>
	<path fill="#F15A29" d="M598.157,174.88h-26.734c-0.615,0-1.114-0.499-1.114-1.114s0.499-1.114,1.114-1.114h26.734
		c0.615,0,1.114,0.499,1.114,1.114S598.772,174.88,598.157,174.88z"/>
</g>
<g>
	<path fill="#F15A29" d="M594.815,181.563h-20.05c-0.615,0-1.114-0.499-1.114-1.114s0.499-1.114,1.114-1.114h20.05
		c0.615,0,1.114,0.499,1.114,1.114S595.431,181.563,594.815,181.563z"/>
</g>
<g>
	<path fill="#F15A29" d="M527.981,235.031c-0.615,0-1.114-0.499-1.114-1.114v-30.075c0-0.615,0.499-1.114,1.114-1.114h3.343
		c0.615,0,1.114,0.499,1.114,1.114s-0.499,1.114-1.114,1.114h-2.229v28.961C529.096,234.532,528.597,235.031,527.981,235.031z"/>
</g>
<g>
	<line fill="#F15A29" x1="531.324" y1="217.208" x2="527.981" y2="217.208"/>
	<path fill="#F15A29" d="M531.324,218.323h-3.343c-0.615,0-1.114-0.499-1.114-1.114s0.499-1.114,1.114-1.114h3.343
		c0.615,0,1.114,0.499,1.114,1.114S531.939,218.323,531.324,218.323z"/>
</g>
<g>
	<line fill="#F15A29" x1="531.324" y1="223.891" x2="527.981" y2="223.891"/>
	<path fill="#F15A29" d="M531.324,225.005h-3.343c-0.615,0-1.114-0.499-1.114-1.114s0.499-1.114,1.114-1.114h3.343
		c0.615,0,1.114,0.499,1.114,1.114S531.939,225.005,531.324,225.005z"/>
</g>
<g>
	<path fill="#F15A29" d="M593.145,151.488h-3.343c-0.615,0-1.114-0.499-1.114-1.114s0.499-1.114,1.114-1.114h3.343
		c0.615,0,1.114,0.499,1.114,1.114S593.76,151.488,593.145,151.488z"/>
</g>
<g>
	<path fill="#F15A29" d="M584.79,151.488h-6.684c-0.615,0-1.114-0.499-1.114-1.114s0.499-1.114,1.114-1.114h6.684
		c0.615,0,1.114,0.499,1.114,1.114S585.405,151.488,584.79,151.488z"/>
</g>
<g>
	<path fill="#F15A29" d="M589.807,144.81c-0.301,0-0.58-0.12-0.79-0.33c-0.21-0.21-0.33-0.49-0.33-0.79c0-0.29,0.12-0.58,0.319-0.79
		c0.431-0.41,1.171-0.41,1.58,0c0.21,0.21,0.33,0.5,0.33,0.79c0,0.29-0.12,0.58-0.33,0.79
		C590.376,144.69,590.097,144.81,589.807,144.81z"/>
</g>
<g>
	<path fill="#F15A29" d="M584.79,144.805h-3.342c-0.615,0-1.114-0.499-1.114-1.114s0.499-1.114,1.114-1.114h3.342
		c0.615,0,1.114,0.499,1.114,1.114S585.405,144.805,584.79,144.805z"/>
</g>
<g>
	<path fill="#F15A29" d="M584.79,214.98c-0.615,0-1.114-0.499-1.114-1.114v-25.062c0-0.615,0.499-1.114,1.114-1.114
		s1.114,0.499,1.114,1.114v25.062C585.904,214.481,585.405,214.98,584.79,214.98z"/>
</g>
<g>
	<path fill="#F15A29" d="M584.79,186.576c-0.615,0-1.114-0.499-1.114-1.114v-35.087c0-0.615,0.499-1.114,1.114-1.114
		s1.114,0.499,1.114,1.114v35.087C585.904,186.077,585.405,186.576,584.79,186.576z"/>
</g>
<g>
	<path fill="#F15A29" d="M589.802,164.855h-5.012c-0.615,0-1.114-0.499-1.114-1.114s0.499-1.114,1.114-1.114h3.897v-4.456h-3.897
		c-0.615,0-1.114-0.499-1.114-1.114s0.499-1.114,1.114-1.114h5.012c0.615,0,1.114,0.499,1.114,1.114v6.683
		C590.916,164.356,590.417,164.855,589.802,164.855z"/>
</g>
<g>
	<path fill="#F15A29" d="M593.145,161.514h-3.343c-0.615,0-1.114-0.499-1.114-1.114s0.499-1.114,1.114-1.114h3.343
		c0.615,0,1.114,0.499,1.114,1.114S593.76,161.514,593.145,161.514z"/>
</g>
<g>
	<g>
		<path fill="#F15A29" d="M671.363,238.372c-0.193,0-0.39-0.051-0.568-0.156c-0.528-0.314-0.702-0.998-0.389-1.527l5.957-10.024
			c0.315-0.529,0.998-0.702,1.527-0.389c0.528,0.314,0.702,0.998,0.389,1.527l-5.957,10.024
			C672.113,238.177,671.743,238.372,671.363,238.372z"/>
	</g>
	<g>
		<path fill="#F15A29" d="M663.566,238.372c-0.193,0-0.39-0.051-0.568-0.156c-0.528-0.314-0.702-0.998-0.389-1.527l5.958-10.024
			c0.314-0.529,0.997-0.702,1.527-0.389c0.528,0.314,0.702,0.998,0.389,1.527l-5.958,10.024
			C664.316,238.177,663.946,238.372,663.566,238.372z"/>
	</g>
	<g>
		<path fill="#F15A29" d="M655.769,238.372c-0.193,0-0.39-0.051-0.568-0.156c-0.528-0.314-0.702-0.998-0.389-1.527l5.958-10.024
			c0.315-0.529,0.998-0.702,1.527-0.389c0.528,0.314,0.702,0.998,0.389,1.527l-5.958,10.024
			C656.519,238.177,656.148,238.372,655.769,238.372z"/>
	</g>
</g>
<g>
	<path fill="#F15A29" d="M116.958,295.181c-0.615,0-1.114-0.499-1.114-1.114v-20.051c0-0.615,0.499-1.114,1.114-1.114
		s1.114,0.499,1.114,1.114v20.051C118.072,294.682,117.573,295.181,116.958,295.181z"/>
</g>
<g>
	<path fill="#F15A29" d="M207.183,191.588h-80.2c-0.615,0-1.114-0.499-1.114-1.114s0.499-1.114,1.114-1.114h80.2
		c0.615,0,1.114,0.499,1.114,1.114S207.798,191.588,207.183,191.588z"/>
</g>
<g>
	<g>
		<path fill="#F15A29" d="M173.766,161.514c-0.615,0-1.114-0.499-1.114-1.114v-3.342c0-0.615,0.499-1.114,1.114-1.114
			s1.114,0.499,1.114,1.114v3.342C174.88,161.015,174.381,161.514,173.766,161.514z"/>
	</g>
	<g>
		<path fill="#F15A29" d="M180.449,161.514c-0.615,0-1.114-0.499-1.114-1.114v-3.342c0-0.615,0.499-1.114,1.114-1.114
			s1.114,0.499,1.114,1.114v3.342C181.563,161.015,181.064,161.514,180.449,161.514z"/>
	</g>
	<g>
		<path fill="#F15A29" d="M187.133,161.514c-0.615,0-1.114-0.499-1.114-1.114v-3.342c0-0.615,0.499-1.114,1.114-1.114
			s1.114,0.499,1.114,1.114v3.342C188.247,161.015,187.748,161.514,187.133,161.514z"/>
	</g>
	<g>
		<path fill="#F15A29" d="M193.816,161.514c-0.615,0-1.114-0.499-1.114-1.114v-3.342c0-0.615,0.499-1.114,1.114-1.114
			s1.114,0.499,1.114,1.114v3.342C194.93,161.015,194.431,161.514,193.816,161.514z"/>
	</g>
	<g>
		<path fill="#F15A29" d="M207.183,161.514c-0.615,0-1.114-0.499-1.114-1.114v-3.342c0-0.615,0.499-1.114,1.114-1.114
			s1.114,0.499,1.114,1.114v3.342C208.296,161.015,207.798,161.514,207.183,161.514z"/>
	</g>
	<g>
		<path fill="#F15A29" d="M200.5,161.514c-0.615,0-1.114-0.499-1.114-1.114v-3.342c0-0.615,0.499-1.114,1.114-1.114
			s1.114,0.499,1.114,1.114v3.342C201.613,161.015,201.115,161.514,200.5,161.514z"/>
	</g>
</g>
<g>
	<path fill="#F15A29" d="M207.183,158.172h-40.1c-0.615,0-1.114-0.499-1.114-1.114s0.499-1.114,1.114-1.114h40.1
		c0.615,0,1.114,0.499,1.114,1.114S207.798,158.172,207.183,158.172z"/>
</g>
<g>
	<path fill="#F15A29" d="M133.667,208.127c-0.021,0-0.042-0.001-0.063-0.002c-0.614-0.034-1.084-0.56-1.05-1.174l0.921-16.539
		c0.034-0.615,0.567-1.076,1.174-1.05c0.614,0.034,1.084,0.56,1.05,1.174l-0.921,16.538
		C134.746,207.668,134.254,208.127,133.667,208.127z"/>
</g>
<g>
	<path fill="#F15A29" d="M152.234,181.586c-0.587,0-1.078-0.458-1.111-1.052l-1.802-32.338h-11.26l-1.806,32.304
		c-0.034,0.614-0.573,1.076-1.174,1.05c-0.614-0.035-1.084-0.56-1.05-1.174l1.865-33.356c0.033-0.59,0.521-1.052,1.112-1.052h13.367
		c0.591,0,1.079,0.461,1.112,1.052l1.86,33.39c0.034,0.614-0.436,1.14-1.05,1.174C152.276,181.585,152.255,181.586,152.234,181.586z
		"/>
</g>
<g>
	<path fill="#F15A29" d="M153.715,208.127c-0.587,0-1.078-0.459-1.111-1.053l-0.921-16.538c-0.034-0.614,0.436-1.14,1.05-1.174
		c0.608-0.024,1.14,0.436,1.174,1.05l0.921,16.539c0.034,0.614-0.436,1.14-1.05,1.174
		C153.757,208.126,153.736,208.127,153.715,208.127z"/>
</g>
<g>
	<path fill="#F15A29" d="M137.009,148.147c-0.36,0-0.713-0.174-0.928-0.496l-3.341-5.013c-0.228-0.342-0.249-0.781-0.055-1.143
		c0.194-0.362,0.571-0.588,0.982-0.588h20.05c0.411,0,0.788,0.226,0.982,0.588c0.194,0.362,0.173,0.801-0.055,1.143l-3.342,5.013
		c-0.341,0.513-1.033,0.649-1.544,0.309c-0.512-0.341-0.65-1.033-0.309-1.544l2.187-3.281h-15.887l2.187,3.281
		c0.341,0.512,0.203,1.203-0.309,1.544C137.436,148.086,137.221,148.147,137.009,148.147z"/>
</g>
<g>
	<path fill="#F15A29" d="M148.704,143.134c-0.615,0-1.114-0.499-1.114-1.114v-3.899h-7.797v3.899c0,0.615-0.499,1.114-1.114,1.114
		s-1.114-0.499-1.114-1.114v-5.013c0-0.615,0.499-1.114,1.114-1.114h10.025c0.615,0,1.114,0.499,1.114,1.114v5.013
		C149.817,142.636,149.319,143.134,148.704,143.134z"/>
</g>
<g>
	<path fill="#F15A29" d="M187.132,128.097c-0.212,0-0.427-0.061-0.617-0.187c-0.512-0.341-0.65-1.033-0.309-1.544l2.187-3.281
		h-15.887l2.187,3.281c0.341,0.512,0.203,1.203-0.309,1.544c-0.51,0.34-1.203,0.204-1.544-0.309l-3.342-5.012
		c-0.228-0.342-0.249-0.781-0.055-1.143c0.194-0.362,0.571-0.588,0.982-0.588h20.05c0.411,0,0.788,0.226,0.982,0.588
		c0.194,0.362,0.173,0.801-0.055,1.143l-3.342,5.012C187.845,127.923,187.492,128.097,187.132,128.097z"/>
</g>
<g>
	<path fill="#F15A29" d="M185.462,123.084c-0.615,0-1.114-0.499-1.114-1.114v-3.899h-7.797v3.899c0,0.615-0.499,1.114-1.114,1.114
		s-1.114-0.499-1.114-1.114v-5.013c0-0.615,0.499-1.114,1.114-1.114h10.025c0.615,0,1.114,0.499,1.114,1.114v5.013
		C186.576,122.586,186.077,123.084,185.462,123.084z"/>
</g>
<g>
	<path fill="#F15A29" d="M172.275,154.83c-0.021,0-0.042,0-0.063-0.001c-0.614-0.035-1.084-0.56-1.05-1.174l1.492-26.684
		c0.033-0.59,0.521-1.052,1.112-1.052h13.367c0.591,0,1.079,0.461,1.112,1.052l1.486,26.683c0.034,0.614-0.436,1.14-1.05,1.174
		c-0.604,0.029-1.14-0.436-1.174-1.05l-1.428-25.631h-11.26l-1.433,25.632C173.354,154.372,172.862,154.83,172.275,154.83z"/>
</g>
<g>
	<path fill="#F15A29" d="M180.449,178.222h-6.683c-0.615,0-1.114-0.499-1.114-1.114v-6.683c0-0.615,0.499-1.114,1.114-1.114h6.683
		c0.615,0,1.114,0.499,1.114,1.114v6.683C181.563,177.723,181.064,178.222,180.449,178.222z M174.88,175.994h4.456v-4.456h-4.456
		V175.994z"/>
</g>
<g>
	<path fill="#F15A29" d="M187.133,204.956h-6.684c-0.615,0-1.114-0.499-1.114-1.114v-6.684c0-0.615,0.499-1.114,1.114-1.114h6.684
		c0.615,0,1.114,0.499,1.114,1.114v6.684C188.247,204.457,187.748,204.956,187.133,204.956z M181.563,202.727h4.456v-4.455h-4.456
		V202.727z"/>
</g>
<g>
	<path fill="#F15A29" d="M200.5,204.956h-6.684c-0.615,0-1.114-0.499-1.114-1.114v-6.684c0-0.615,0.499-1.114,1.114-1.114h6.684
		c0.615,0,1.114,0.499,1.114,1.114v6.684C201.613,204.457,201.115,204.956,200.5,204.956z M194.93,202.727h4.456v-4.455h-4.456
		V202.727z"/>
</g>
<g>
	<path fill="#F15A29" d="M193.816,181.563c-0.615,0-1.114-0.499-1.114-1.114v-8.911h-4.456v8.911c0,0.615-0.499,1.114-1.114,1.114
		s-1.114-0.499-1.114-1.114v-10.024c0-0.615,0.499-1.114,1.114-1.114h6.683c0.615,0,1.114,0.499,1.114,1.114v10.024
		C194.93,181.064,194.431,181.563,193.816,181.563z"/>
</g>
<g>
	<path fill="#F15A29" d="M314.116,188.247c-0.615,0-1.114-0.499-1.114-1.114v-20.05c0-0.615,0.499-1.114,1.114-1.114
		s1.114,0.499,1.114,1.114v20.05C315.229,187.748,314.731,188.247,314.116,188.247z"/>
</g>
<g>
	<path fill="#F15A29" d="M411.024,168.197h-23.393c-0.615,0-1.114-0.499-1.114-1.114s0.499-1.114,1.114-1.114h23.393
		c0.615,0,1.114,0.499,1.114,1.114S411.64,168.197,411.024,168.197z"/>
</g>
<g>
	<path fill="#F15A29" d="M367.582,168.197h-53.466c-0.615,0-1.114-0.499-1.114-1.114s0.499-1.114,1.114-1.114h53.466
		c0.615,0,1.114,0.499,1.114,1.114S368.197,168.197,367.582,168.197z"/>
</g>
<g>
	<path fill="#F15A29" d="M507.932,188.247c-0.615,0-1.114-0.499-1.114-1.114v-18.936h-94.679v18.936
		c0,0.615-0.499,1.114-1.114,1.114s-1.114-0.499-1.114-1.114v-20.05c0-0.615,0.499-1.114,1.114-1.114h96.907
		c0.615,0,1.114,0.499,1.114,1.114v20.05C509.046,187.748,508.547,188.247,507.932,188.247z"/>
</g>
<g>
	<path fill="#F15A29" d="M614.876,214.98c-0.615,0-1.114-0.499-1.114-1.114v-20.05c0-0.615,0.499-1.114,1.114-1.114
		s1.114,0.499,1.114,1.114v20.05C615.99,214.481,615.491,214.98,614.876,214.98z"/>
</g>
<g>
	<path fill="#F15A29" d="M664.99,214.98c-0.615,0-1.114-0.499-1.114-1.114v-23.391c0-0.615,0.499-1.114,1.114-1.114
		s1.114,0.499,1.114,1.114v23.391C666.104,214.481,665.605,214.98,664.99,214.98z"/>
</g>
<g>
	<path fill="#F15A29" d="M614.876,193.816"/>
</g>
<g>
	<path fill="#F15A29" d="M664.99,194.93h-50.113c-0.615,0-1.114-0.499-1.114-1.114s0.499-1.114,1.114-1.114h50.113
		c0.615,0,1.114,0.499,1.114,1.114S665.605,194.93,664.99,194.93z"/>
</g>
<g>
	<path fill="#F15A29" d="M614.876,170.425"/>
</g>
<g>
	<path fill="#F15A29" d="M664.99,191.588c-0.615,0-1.114-0.499-1.114-1.114v-18.936h-47.885l-0.001,18.936
		c0,0.615-0.499,1.114-1.114,1.114l0,0c-0.615,0-1.114-0.499-1.114-1.114v-20.05c0-0.615,0.499-1.114,1.114-1.114h50.114
		c0.615,0,1.114,0.499,1.114,1.114v20.05C666.104,191.09,665.605,191.588,664.99,191.588z"/>
</g>
<g>
	<g>
		<path fill="#F15A29" d="M531.324,128.097H389.551c-0.615,0-1.114-0.499-1.114-1.114s0.499-1.114,1.114-1.114h141.773
			c0.615,0,1.114,0.499,1.114,1.114S531.939,128.097,531.324,128.097z"/>
	</g>
	<g>
		<path fill="#F15A29" d="M531.324,134.78h-5.014c-0.615,0-1.114-0.499-1.114-1.114v-6.684c0-0.615,0.499-1.114,1.114-1.114
			s1.114,0.499,1.114,1.114v5.57h2.785v-5.57c0-0.615,0.499-1.114,1.114-1.114s1.114,0.499,1.114,1.114v6.684
			C532.438,134.282,531.939,134.78,531.324,134.78z"/>
	</g>
	<g>
		<line fill="#F15A29" x1="527.73" y1="142.021" x2="527.73" y2="145.362"/>
		<path fill="#F15A29" d="M527.73,146.476c-0.615,0-1.114-0.499-1.114-1.114v-3.342c0-0.615,0.499-1.114,1.114-1.114
			s1.114,0.499,1.114,1.114v3.342C528.845,145.978,528.346,146.476,527.73,146.476z"/>
	</g>
	<g>
		<line fill="#F15A29" x1="527.981" y1="133.667" x2="407.683" y2="143.691"/>
		<path fill="#F15A29" d="M407.682,144.805c-0.573,0-1.061-0.439-1.109-1.021c-0.051-0.613,0.404-1.151,1.018-1.202l120.299-10.025
			c0.625-0.052,1.152,0.405,1.203,1.018s-0.404,1.151-1.018,1.202l-120.299,10.025C407.744,144.804,407.712,144.805,407.682,144.805
			z"/>
	</g>
	<g>
		<path fill="#F15A29" d="M387.633,154.831c-0.409,0-0.802-0.226-0.997-0.616c-0.275-0.55-0.053-1.219,0.498-1.494l17.646-8.822
			l-17.5-5.833c-0.583-0.194-0.898-0.825-0.704-1.409c0.193-0.583,0.821-0.901,1.409-0.705l20.051,6.684
			c0.427,0.143,0.727,0.528,0.759,0.978c0.031,0.45-0.21,0.874-0.613,1.075l-20.051,10.025
			C387.97,154.792,387.8,154.831,387.633,154.831z"/>
	</g>
	<g>
		<path fill="#F15A29" d="M387.632,201.614c-0.615,0-1.114-0.499-1.114-1.114v-68.565c0-0.615,0.499-1.114,1.114-1.114
			s1.114,0.499,1.114,1.114V200.5C388.746,201.115,388.247,201.614,387.632,201.614z"/>
	</g>
	<g>
		<path fill="#F15A29" d="M367.582,201.613c-0.615,0-1.114-0.499-1.114-1.114v-70.174c0-0.615,0.499-1.114,1.114-1.114h16.687
			c0.615,0,1.114,0.499,1.114,1.114s-0.499,1.114-1.114,1.114h-15.572v69.06C368.696,201.114,368.197,201.613,367.582,201.613z"/>
	</g>
	<g>
		<path fill="#F15A29" d="M387.632,138.122h-20.05c-0.615,0-1.114-0.499-1.114-1.114s0.499-1.114,1.114-1.114h20.05
			c0.615,0,1.114,0.499,1.114,1.114S388.247,138.122,387.632,138.122z"/>
	</g>
	<g>
		<path fill="#F15A29" d="M387.632,154.83h-20.05c-0.615,0-1.114-0.499-1.114-1.114s0.499-1.114,1.114-1.114h20.05
			c0.615,0,1.114,0.499,1.114,1.114S388.247,154.83,387.632,154.83z"/>
	</g>
	<g>
		<path fill="#F15A29" d="M387.632,149.817h-20.05c-0.615,0-1.114-0.499-1.114-1.114s0.499-1.114,1.114-1.114h20.05
			c0.615,0,1.114,0.499,1.114,1.114S388.247,149.817,387.632,149.817z"/>
	</g>
	<g>
		<path fill="#F15A29" d="M387.632,143.134h-20.05c-0.615,0-1.114-0.499-1.114-1.114s0.499-1.114,1.114-1.114h20.05
			c0.615,0,1.114,0.499,1.114,1.114S388.247,143.134,387.632,143.134z"/>
	</g>
	<g>
		<path fill="#F15A29" d="M407.683,144.805c-0.615,0-1.114-0.499-1.114-1.114v-16.708c0-0.615,0.499-1.114,1.114-1.114
			s1.114,0.499,1.114,1.114v16.708C408.797,144.307,408.298,144.805,407.683,144.805z"/>
	</g>
	<g>
		<path fill="#F15A29" d="M427.732,143.134c-0.615,0-1.114-0.499-1.114-1.114v-15.038c0-0.615,0.499-1.114,1.114-1.114
			s1.114,0.499,1.114,1.114v15.038C428.847,142.636,428.348,143.134,427.732,143.134z"/>
	</g>
	<g>
		<path fill="#F15A29" d="M447.782,141.463c-0.615,0-1.114-0.499-1.114-1.114v-13.367c0-0.615,0.499-1.114,1.114-1.114
			s1.114,0.499,1.114,1.114v13.367C448.896,140.965,448.397,141.463,447.782,141.463z"/>
	</g>
	<g>
		<path fill="#F15A29" d="M467.833,139.793c-0.615,0-1.114-0.499-1.114-1.114v-11.696c0-0.615,0.499-1.114,1.114-1.114
			s1.114,0.499,1.114,1.114v11.696C468.947,139.294,468.448,139.793,467.833,139.793z"/>
	</g>
	<g>
		<path fill="#F15A29" d="M487.883,138.122c-0.615,0-1.114-0.499-1.114-1.114v-10.025c0-0.615,0.499-1.114,1.114-1.114
			s1.114,0.499,1.114,1.114v10.025C488.997,137.623,488.498,138.122,487.883,138.122z"/>
	</g>
	<g>
		<path fill="#F15A29" d="M507.932,136.451c-0.615,0-1.114-0.499-1.114-1.114v-8.354c0-0.615,0.499-1.114,1.114-1.114
			s1.114,0.499,1.114,1.114v8.354C509.046,135.953,508.547,136.451,507.932,136.451z"/>
	</g>
	<path fill="#F15A29" d="M386.824,126.983c0.922,0,1.671,0.749,1.671,1.671s-0.749,1.671-1.671,1.671
		c-0.923,0-1.672-0.749-1.672-1.671S385.901,126.983,386.824,126.983 M386.824,124.755c-2.15,0-3.899,1.749-3.899,3.898
		s1.749,3.898,3.899,3.898c2.149,0,3.898-1.749,3.898-3.898S388.974,124.755,386.824,124.755L386.824,124.755z"/>
	<path fill="#F15A29" d="M527.73,136.637c0.923,0,1.671,0.748,1.671,1.671c0,0.922-0.748,1.671-1.671,1.671
		c-0.922,0-1.671-0.749-1.671-1.671C526.06,137.385,526.809,136.637,527.73,136.637 M527.73,134.409
		c-2.149,0-3.898,1.749-3.898,3.898s1.749,3.898,3.898,3.898s3.898-1.749,3.898-3.898S529.88,134.409,527.73,134.409L527.73,134.409
		z"/>
</g>
<g>
	<path fill="#F15A29" d="M584.79,148.147c-0.615,0-1.114-0.499-1.114-1.114v-10.025c0-0.615,0.499-1.114,1.114-1.114
		s1.114,0.499,1.114,1.114v10.025C585.904,147.648,585.405,148.147,584.79,148.147z"/>
</g>
<g>
	<path fill="#F15A29" d="M644.94,214.98c-0.615,0-1.114-0.499-1.114-1.114c0-2.149-1.749-3.897-3.898-3.897
		s-3.898,1.748-3.898,3.897c0,0.615-0.499,1.114-1.114,1.114s-1.114-0.499-1.114-1.114c0-3.378,2.749-6.126,6.127-6.126
		s6.127,2.748,6.127,6.126C646.055,214.481,645.556,214.98,644.94,214.98z"/>
</g>
<circle fill="#F15A29" cx="639.928" cy="213.866" r="1.671"/>
<g>
	<path fill="#F15A29" d="M658.244,214.98c-0.615,0-1.114-0.499-1.114-1.114c0-2.149-1.749-3.897-3.898-3.897
		s-3.898,1.748-3.898,3.897c0,0.615-0.499,1.114-1.114,1.114s-1.114-0.499-1.114-1.114c0-3.378,2.749-6.126,6.127-6.126
		s6.127,2.748,6.127,6.126C659.358,214.481,658.859,214.98,658.244,214.98z"/>
</g>
<circle fill="#F15A29" cx="653.231" cy="213.866" r="1.67"/>
<g>
	<path fill="#F15A29" d="M233.916,208.297h-6.684c-0.615,0-1.114-0.499-1.114-1.114v-10.025c0-0.615,0.499-1.114,1.114-1.114h6.684
		c0.615,0,1.114,0.499,1.114,1.114v10.025C235.03,207.798,234.531,208.297,233.916,208.297z M228.346,206.069h4.456v-7.797h-4.456
		V206.069z"/>
</g>
<g>
	<path fill="#F15A29" d="M327.482,208.297h-6.684c-0.615,0-1.114-0.499-1.114-1.114v-10.025c0-0.615,0.499-1.114,1.114-1.114h6.684
		c0.615,0,1.114,0.499,1.114,1.114v10.025C328.596,207.798,328.098,208.297,327.482,208.297z M321.913,206.069h4.456v-7.797h-4.456
		V206.069z"/>
</g>
<g>
	<path fill="#F15A29" d="M327.482,184.905h-6.684c-0.615,0-1.114-0.499-1.114-1.114v-10.025c0-0.615,0.499-1.114,1.114-1.114h6.684
		c0.615,0,1.114,0.499,1.114,1.114v10.025C328.596,184.407,328.098,184.905,327.482,184.905z M321.913,182.678h4.456v-7.797h-4.456
		V182.678z"/>
</g>
<g>
	<path fill="#F15A29" d="M424.391,208.297h-6.684c-0.615,0-1.114-0.499-1.114-1.114v-10.025c0-0.615,0.499-1.114,1.114-1.114h6.684
		c0.615,0,1.114,0.499,1.114,1.114v10.025C425.505,207.798,425.006,208.297,424.391,208.297z M418.821,206.069h4.455v-7.797h-4.455
		V206.069z"/>
</g>
<g>
	<path fill="#F15A29" d="M233.916,231.688h-6.684c-0.615,0-1.114-0.499-1.114-1.114v-10.024c0-0.615,0.499-1.114,1.114-1.114h6.684
		c0.615,0,1.114,0.499,1.114,1.114v10.024C235.03,231.189,234.531,231.688,233.916,231.688z M228.346,229.459h4.456v-7.796h-4.456
		V229.459z"/>
</g>
<g>
	<path fill="#F15A29" d="M424.391,231.688h-6.684c-0.615,0-1.114-0.499-1.114-1.114v-10.024c0-0.615,0.499-1.114,1.114-1.114h6.684
		c0.615,0,1.114,0.499,1.114,1.114v10.024C425.505,231.189,425.006,231.688,424.391,231.688z M418.821,229.459h4.455v-7.796h-4.455
		V229.459z"/>
</g>
<g>
	<path fill="#F15A29" d="M424.391,184.905h-6.684c-0.615,0-1.114-0.499-1.114-1.114v-10.025c0-0.615,0.499-1.114,1.114-1.114h6.684
		c0.615,0,1.114,0.499,1.114,1.114v10.025C425.505,184.407,425.006,184.905,424.391,184.905z M418.821,182.678h4.455v-7.797h-4.455
		V182.678z"/>
</g>
<g>
	<path fill="#F15A29" d="M628.232,211.639h-6.684c-0.615,0-1.114-0.499-1.114-1.114V200.5c0-0.615,0.499-1.114,1.114-1.114h6.684
		c0.615,0,1.114,0.499,1.114,1.114v10.025C629.347,211.14,628.848,211.639,628.232,211.639z M622.663,209.411h4.455v-7.797h-4.455
		V209.411z"/>
</g>
<g>
	<path fill="#F15A29" d="M628.232,188.247h-6.684c-0.615,0-1.114-0.499-1.114-1.114v-10.025c0-0.615,0.499-1.114,1.114-1.114h6.684
		c0.615,0,1.114,0.499,1.114,1.114v10.025C629.347,187.748,628.848,188.247,628.232,188.247z M622.663,186.019h4.455v-7.797h-4.455
		V186.019z"/>
</g>
<g>
	<path fill="#F15A29" d="M327.482,231.688h-6.684c-0.615,0-1.114-0.499-1.114-1.114v-10.024c0-0.615,0.499-1.114,1.114-1.114h6.684
		c0.615,0,1.114,0.499,1.114,1.114v10.024C328.596,231.189,328.098,231.688,327.482,231.688z M321.913,229.459h4.456v-7.796h-4.456
		V229.459z"/>
</g>
<g>
	<path fill="#F15A29" d="M123.641,295.181h-13.367c-0.22,0-0.435-0.065-0.618-0.188l-10.025-6.685
		c-0.31-0.207-0.496-0.555-0.496-0.927v-20.049c0-0.615,0.499-1.114,1.114-1.114h10.025c0.615,0,1.114,0.499,1.114,1.114
		c0,2.706,2.863,5.568,5.57,5.568h6.683c0.615,0,1.114,0.499,1.114,1.114v6.555c0,0.615-0.499,1.114-1.114,1.114
		s-1.114-0.499-1.114-1.114v-5.44h-5.569c-3.562,0-7.064-3.165-7.697-6.683h-7.898v18.339l9.249,6.166h11.916v-5.25
		c0-0.615,0.499-1.114,1.114-1.114s1.114,0.499,1.114,1.114v6.364C124.755,294.682,124.256,295.181,123.641,295.181z"/>
</g>
<g>
	<g>
		<path fill="#F15A29" d="M93.566,282.923H83.542c-0.615,0-1.114-0.499-1.114-1.114s0.499-1.114,1.114-1.114h10.024
			c0.615,0,1.114,0.499,1.114,1.114S94.181,282.923,93.566,282.923z"/>
	</g>
</g>
<g>
	<g>
		<path fill="#F15A29" d="M93.566,288.497h-3.341c-0.615,0-1.114-0.499-1.114-1.114s0.499-1.114,1.114-1.114h3.341
			c0.615,0,1.114,0.499,1.114,1.114S94.181,288.497,93.566,288.497z"/>
	</g>
</g>
<g>
	<path fill="#F15A29" d="M83.536,288.5c-0.29,0-0.57-0.12-0.78-0.33s-0.33-0.489-0.33-0.79c0-0.29,0.12-0.58,0.33-0.79
		c0.42-0.409,1.16-0.409,1.57,0c0.21,0.21,0.33,0.5,0.33,0.79c0,0.301-0.12,0.58-0.33,0.79S83.836,288.5,83.536,288.5z"/>
</g>
<g>
	<path fill="#F15A29" d="M76.856,288.5c-0.29,0-0.57-0.12-0.79-0.33c-0.21-0.21-0.32-0.489-0.32-0.79c0-0.29,0.12-0.58,0.32-0.79
		c0.42-0.409,1.16-0.409,1.58,0c0.21,0.21,0.33,0.5,0.33,0.79c0,0.301-0.12,0.58-0.33,0.79S77.156,288.5,76.856,288.5z"/>
</g>
<g>
	<g>
		<path fill="#F15A29" d="M76.858,282.923h-3.342c-0.615,0-1.114-0.499-1.114-1.114s0.499-1.114,1.114-1.114h3.342
			c0.615,0,1.114,0.499,1.114,1.114S77.474,282.923,76.858,282.923z"/>
	</g>
</g>
<g>
	<path fill="#F15A29" d="M66.836,282.919c-0.3,0-0.58-0.109-0.79-0.33c-0.21-0.21-0.33-0.479-0.33-0.779c0-0.29,0.12-0.58,0.33-0.79
		c0.41-0.41,1.15-0.42,1.57,0c0.21,0.21,0.33,0.5,0.33,0.79c0,0.3-0.11,0.569-0.33,0.79
		C67.406,282.81,67.126,282.919,66.836,282.919z"/>
</g>
<g>
	<path fill="#F15A29" d="M60.146,282.919c-0.29,0-0.57-0.109-0.78-0.33c-0.21-0.21-0.33-0.479-0.33-0.779
		c0-0.29,0.12-0.58,0.32-0.79c0.42-0.41,1.16-0.42,1.58,0c0.21,0.21,0.33,0.5,0.33,0.79c0,0.3-0.12,0.569-0.33,0.79
		C60.727,282.81,60.446,282.919,60.146,282.919z"/>
</g>
<g>
	<g>
		<path fill="#F15A29" d="M93.566,245.055H43.441c-0.615,0-1.114-0.499-1.114-1.114s0.499-1.114,1.114-1.114h50.125
			c0.615,0,1.114,0.499,1.114,1.114S94.181,245.055,93.566,245.055z"/>
	</g>
</g>
<g>
	<g>
		<path fill="#F15A29" d="M36.758,245.055h-6.683c-0.615,0-1.114-0.499-1.114-1.114s0.499-1.114,1.114-1.114h6.683
			c0.615,0,1.114,0.499,1.114,1.114S37.373,245.055,36.758,245.055z"/>
	</g>
</g>
<g>
	<path fill="#F15A29" d="M23.396,245.049c-0.3,0-0.58-0.109-0.79-0.319s-0.33-0.49-0.33-0.79c0-0.29,0.12-0.58,0.33-0.79
		c0.41-0.41,1.16-0.41,1.57,0c0.21,0.21,0.33,0.5,0.33,0.79c0,0.3-0.12,0.58-0.33,0.79S23.687,245.049,23.396,245.049z"/>
</g>
<g>
	<path fill="#F15A29" d="M16.707,245.049c-0.3,0-0.58-0.109-0.79-0.319s-0.32-0.49-0.32-0.79c0-0.29,0.12-0.58,0.32-0.79
		c0.42-0.41,1.16-0.41,1.58,0c0.21,0.21,0.32,0.5,0.32,0.79c0,0.3-0.11,0.58-0.32,0.79C17.286,244.94,17.006,245.049,16.707,245.049
		z"/>
</g>
<g>
	<g>
		<path fill="#F15A29" d="M53.466,252.848h-3.342c-0.615,0-1.114-0.499-1.114-1.114s0.499-1.114,1.114-1.114h3.342
			c0.615,0,1.114,0.499,1.114,1.114S54.082,252.848,53.466,252.848z"/>
	</g>
</g>
<g>
	<path fill="#F15A29" d="M43.446,252.85c-0.3,0-0.58-0.12-0.79-0.33s-0.33-0.49-0.33-0.78c0-0.3,0.12-0.59,0.33-0.79
		c0.41-0.42,1.16-0.42,1.57,0c0.21,0.21,0.33,0.49,0.33,0.79c0,0.29-0.12,0.57-0.33,0.78C44.016,252.73,43.736,252.85,43.446,252.85
		z"/>
</g>
<g>
	<path fill="#F15A29" d="M36.756,252.85c-0.3,0-0.58-0.12-0.79-0.33s-0.32-0.49-0.32-0.78c0-0.3,0.12-0.59,0.32-0.79
		c0.42-0.42,1.16-0.42,1.58,0c0.21,0.21,0.33,0.49,0.33,0.79c0,0.29-0.12,0.57-0.33,0.78S37.056,252.85,36.756,252.85z"/>
</g>
<g>
	<path fill="#F15A29" d="M160.399,252.848H60.15c-0.615,0-1.114-0.499-1.114-1.114s0.499-1.114,1.114-1.114h100.25
		c0.615,0,1.114,0.499,1.114,1.114S161.015,252.848,160.399,252.848z"/>
</g>
<g>
	<g>
		<path fill="#F15A29" d="M704.838,245.055H688.13c-0.615,0-1.114-0.499-1.114-1.114s0.499-1.114,1.114-1.114h16.708
			c0.615,0,1.114,0.499,1.114,1.114S705.453,245.055,704.838,245.055z"/>
	</g>
</g>
<g>
	<g>
		<path fill="#F15A29" d="M721.547,245.055h-10.025c-0.615,0-1.114-0.499-1.114-1.114s0.499-1.114,1.114-1.114h10.025
			c0.615,0,1.114,0.499,1.114,1.114S722.162,245.055,721.547,245.055z"/>
	</g>
</g>
<g>
	<path fill="#F15A29" d="M728.227,245.049c-0.29,0-0.57-0.109-0.78-0.319c-0.22-0.21-0.33-0.49-0.33-0.79
		c0-0.29,0.12-0.58,0.32-0.79c0.42-0.41,1.17-0.41,1.58,0c0.21,0.21,0.33,0.5,0.33,0.79c0,0.3-0.12,0.58-0.33,0.79
		S728.526,245.049,728.227,245.049z"/>
</g>
<g>
	<path fill="#F15A29" d="M734.916,245.049c-0.3,0-0.58-0.109-0.79-0.319s-0.33-0.49-0.33-0.79c0-0.29,0.12-0.58,0.33-0.79
		c0.41-0.41,1.16-0.41,1.57,0c0.21,0.21,0.33,0.5,0.33,0.79c0,0.3-0.11,0.58-0.32,0.79
		C735.486,244.94,735.206,245.049,734.916,245.049z"/>
</g>
<g>
	<g>
		<path fill="#F15A29" d="M608.183,252.848h-3.343c-0.615,0-1.114-0.499-1.114-1.114s0.499-1.114,1.114-1.114h3.343
			c0.615,0,1.114,0.499,1.114,1.114S608.798,252.848,608.183,252.848z"/>
	</g>
</g>
<g>
	<path fill="#F15A29" d="M598.156,252.85c-0.3,0-0.58-0.12-0.79-0.33s-0.32-0.49-0.32-0.79c0-0.29,0.12-0.58,0.32-0.78
		c0.42-0.42,1.17-0.42,1.58,0c0.21,0.2,0.32,0.49,0.32,0.78c0,0.3-0.11,0.58-0.32,0.79S598.456,252.85,598.156,252.85z"/>
</g>
<g>
	<path fill="#F15A29" d="M591.477,252.85c-0.3,0-0.58-0.12-0.79-0.33s-0.33-0.49-0.33-0.79c0-0.29,0.12-0.58,0.33-0.79
		c0.41-0.4,1.149-0.41,1.569,0.01c0.211,0.2,0.33,0.49,0.33,0.78c0,0.3-0.119,0.58-0.33,0.79
		C592.046,252.73,591.767,252.85,591.477,252.85z"/>
</g>
<g>
	<path fill="#F15A29" d="M715.115,252.848h-100.25c-0.615,0-1.114-0.499-1.114-1.114s0.499-1.114,1.114-1.114h100.25
		c0.615,0,1.114,0.499,1.114,1.114S715.73,252.848,715.115,252.848z"/>
</g>
<g>
	<path fill="#F15A29" d="M197.158,288.497h-76.858c-2.457,0-4.455-1.999-4.455-4.456c0-2.456,1.999-4.455,4.455-4.455h76.858
		c0.615,0,1.114,0.499,1.114,1.114s-0.499,1.114-1.114,1.114h-76.858c-1.228,0-2.228,0.999-2.228,2.227c0,1.229,1,2.228,2.228,2.228
		h76.858c0.615,0,1.114,0.499,1.114,1.114S197.773,288.497,197.158,288.497z"/>
</g>
<path fill="#F15A29" d="M155.135,223.891c0.922,0,1.671,0.748,1.671,1.671c0,0.922-0.749,1.671-1.671,1.671s-1.67-0.749-1.67-1.671
	C153.465,224.639,154.213,223.891,155.135,223.891 M155.135,221.664c-2.149,0-3.898,1.749-3.898,3.898s1.749,3.898,3.898,3.898
	c2.15,0,3.898-1.749,3.898-3.898S157.285,221.664,155.135,221.664L155.135,221.664z"/>
<path fill="#F15A29" d="M138.679,223.891c0.922,0,1.671,0.748,1.671,1.671c0,0.922-0.749,1.671-1.671,1.671
	s-1.671-0.749-1.671-1.671C137.008,224.639,137.756,223.891,138.679,223.891 M138.679,221.664c-2.15,0-3.898,1.749-3.898,3.898
	s1.749,3.898,3.898,3.898s3.898-1.749,3.898-3.898S140.829,221.664,138.679,221.664L138.679,221.664z"/>
<path fill="#F15A29" d="M165.412,223.891c0.922,0,1.67,0.748,1.67,1.671c0,0.922-0.748,1.671-1.67,1.671s-1.671-0.749-1.671-1.671
	C163.741,224.639,164.49,223.891,165.412,223.891 M165.412,221.664c-2.15,0-3.899,1.749-3.899,3.898s1.749,3.898,3.899,3.898
	c2.149,0,3.898-1.749,3.898-3.898S167.562,221.664,165.412,221.664L165.412,221.664z"/>
<path fill="#F15A29" d="M198.828,223.891c0.923,0,1.671,0.748,1.671,1.671c0,0.922-0.749,1.671-1.671,1.671
	c-0.922,0-1.67-0.749-1.67-1.671C197.158,224.639,197.906,223.891,198.828,223.891 M198.828,221.664
	c-2.149,0-3.898,1.749-3.898,3.898s1.749,3.898,3.898,3.898c2.15,0,3.899-1.749,3.899-3.898S200.978,221.664,198.828,221.664
	L198.828,221.664z"/>
<path fill="#F15A29" d="M99.971,200.5c0.922,0,1.671,0.749,1.671,1.671c0,0.923-0.749,1.671-1.671,1.671s-1.671-0.748-1.671-1.671
	C98.3,201.249,99.049,200.5,99.971,200.5 M99.971,198.272c-2.15,0-3.898,1.749-3.898,3.898s1.749,3.898,3.898,3.898
	s3.898-1.749,3.898-3.898S102.121,198.272,99.971,198.272L99.971,198.272z"/>
<rect x="97.767" y="193.816" fill="#F15A29" width="3.14" height="2.229"/>
<path fill="#F15A29" d="M114.73,203.841h-6.126v-8.173c0-1.02-0.833-1.853-1.852-1.853H93.19c-0.001,0-0.003,0-0.005,0h-6.373
	c-0.615,0-1.114,0.499-1.114,1.114s0.499,1.114,1.114,1.114h4.525v12.628c0,1.02,0.833,1.853,1.852,1.853h13.562
	c0.062,0,0.12-0.013,0.181-0.019v0.018h7.797v6.685h2.228v-6.684c0-1.229-0.999-2.229-2.228-2.229h-6.126v-2.228h6.126
	c2.457,0,4.456,1.999,4.456,4.456v6.684h2.228v-6.684C121.413,206.839,118.415,203.841,114.73,203.841z M106.376,208.297H93.566
	v-12.253h5.771c0.002,0,0.003-0.001,0.005-0.001h7.035V208.297z"/>

</svg>
